<?xml version="1.0" encoding="UTF-8"?>
<svg id="Warstwa_2" data-name="Warstwa 2" xmlns="http://www.w3.org/2000/svg" xmlns:xlink="http://www.w3.org/1999/xlink" viewBox="0 0 8911.46 3078.71">
  <defs>
    <style>
      .cls-1 {
        fill: url(#Gradient_bez_nazwy_14-10);
      }

      .cls-2 {
        clip-path: url(#clippath-20);
      }

      .cls-3 {
        fill: url(#Gradient_bez_nazwy_14-13);
      }

      .cls-4 {
        clip-path: url(#clippath-11);
      }

      .cls-5 {
        clip-path: url(#clippath-16);
      }

      .cls-6 {
        fill: #fff;
      }

      .cls-7 {
        fill: url(#Gradient_bez_nazwy_14-12);
      }

      .cls-8 {
        fill: url(#Gradient_bez_nazwy_14-3);
      }

      .cls-9 {
        clip-path: url(#clippath-2);
      }

      .cls-10 {
        clip-path: url(#clippath-13);
      }

      .cls-11 {
        clip-path: url(#clippath-15);
      }

      .cls-12 {
        clip-path: url(#clippath-6);
      }

      .cls-13 {
        fill: url(#Gradient_bez_nazwy_14);
      }

      .cls-14 {
        clip-path: url(#clippath-7);
      }

      .cls-15 {
        clip-path: url(#clippath-21);
      }

      .cls-16 {
        fill: url(#Gradient_bez_nazwy_14-4);
      }

      .cls-17 {
        clip-path: url(#clippath-1);
      }

      .cls-18 {
        clip-path: url(#clippath-4);
      }

      .cls-19 {
        clip-path: url(#clippath-12);
      }

      .cls-20 {
        fill: url(#Gradient_bez_nazwy_14-5);
      }

      .cls-21 {
        clip-path: url(#clippath-22);
      }

      .cls-22 {
        clip-path: url(#clippath-9);
      }

      .cls-23 {
        fill: url(#Gradient_bez_nazwy_14-9);
      }

      .cls-24 {
        clip-path: url(#clippath);
      }

      .cls-25 {
        fill: url(#Gradient_bez_nazwy_14-14);
      }

      .cls-26 {
        fill: none;
      }

      .cls-27 {
        clip-path: url(#clippath-19);
      }

      .cls-28 {
        clip-path: url(#clippath-3);
      }

      .cls-29 {
        fill: url(#Gradient_bez_nazwy_14-8);
      }

      .cls-30 {
        clip-path: url(#clippath-8);
      }

      .cls-31 {
        clip-path: url(#clippath-18);
      }

      .cls-32 {
        clip-path: url(#clippath-14);
      }

      .cls-33 {
        clip-path: url(#clippath-17);
      }

      .cls-34 {
        fill: url(#Gradient_bez_nazwy_14-11);
      }

      .cls-35 {
        clip-path: url(#clippath-5);
      }

      .cls-36 {
        fill: url(#Gradient_bez_nazwy_15);
      }

      .cls-37 {
        fill: url(#Gradient_bez_nazwy_14-2);
      }

      .cls-38 {
        fill: url(#Gradient_bez_nazwy_14-6);
      }

      .cls-39 {
        clip-path: url(#clippath-10);
      }

      .cls-40 {
        fill: url(#Gradient_bez_nazwy_14-7);
      }
    </style>
    <clipPath id="clippath">
      <polygon class="cls-26" points="3740.83 807.15 4173.69 442.01 4367.71 442.01 4406.12 612.82 4444.52 612.82 4444.52 194.21 4406.12 194.21 4367.71 364.95 4173.69 364.95 3740.83 0 3740.83 807.15"/>
    </clipPath>
    <linearGradient id="Gradient_bez_nazwy_14" data-name="Gradient bez nazwy 14" x1="-1195.57" y1="11643.07" x2="-1133.33" y2="11643.07" gradientTransform="translate(142980.49 1385506.28) scale(118.96 -118.96)" gradientUnits="userSpaceOnUse">
      <stop offset="0" stop-color="#b78e33"/>
      <stop offset=".5" stop-color="#dcb028"/>
      <stop offset="1" stop-color="#ba8e2b"/>
    </linearGradient>
    <clipPath id="clippath-1">
      <polygon class="cls-26" points="4789.25 364.95 4595.41 364.95 4557 194.21 4518.41 194.21 4518.41 612.82 4557 612.82 4595.41 442.01 4789.25 442.01 5222.11 807.15 5222.11 0 4789.25 364.95"/>
    </clipPath>
    <linearGradient id="Gradient_bez_nazwy_14-2" data-name="Gradient bez nazwy 14" x1="-1195.57" x2="-1133.33" xlink:href="#Gradient_bez_nazwy_14"/>
    <clipPath id="clippath-2">
      <rect class="cls-26" x="754.99" width="7401.42" height="1913.21"/>
    </clipPath>
    <clipPath id="clippath-3">
      <path class="cls-26" d="m5384.32,408.52c-1.12,12.08,7.72,22.72,19.79,23.84,1.31.12,2.68.12,3.98,0l862.24-21.72-862.24-21.91c-.62-.06-1.37-.06-2.05-.06-11.14,0-20.73,8.53-21.72,19.86"/>
    </clipPath>
    <linearGradient id="Gradient_bez_nazwy_14-3" data-name="Gradient bez nazwy 14" x1="-1195.57" y1="11643.01" x2="-1133.33" y2="11643.01" gradientTransform="translate(142980.49 1385506.39) scale(118.96 -118.96)" xlink:href="#Gradient_bez_nazwy_14"/>
    <clipPath id="clippath-4">
      <rect class="cls-26" x="754.99" width="7401.42" height="1913.21"/>
    </clipPath>
    <clipPath id="clippath-5">
      <path class="cls-26" d="m3554.84,388.73l-862.24,21.91,862.24,21.72c1.31.12,2.68.12,3.98,0,12.08-1.12,20.91-11.76,19.79-23.84-1-11.33-10.58-19.86-21.72-19.86-.75,0-1.43,0-2.05.06"/>
    </clipPath>
    <linearGradient id="Gradient_bez_nazwy_14-4" data-name="Gradient bez nazwy 14" x1="-1195.57" y1="11643.01" x2="-1133.33" y2="11643.01" gradientTransform="translate(142980.49 1385506.39) scale(118.96 -118.96)" xlink:href="#Gradient_bez_nazwy_14"/>
    <clipPath id="clippath-6">
      <polygon class="cls-26" points="1301.64 1398.18 1238.21 1733 1158.78 1410.19 1038.08 1410.19 959.41 1733 894.98 1398.18 754.99 1398.18 876.18 1897.9 1017.05 1897.9 1095.79 1581.75 1174.47 1897.9 1312.97 1897.9 1437.33 1398.18 1301.64 1398.18"/>
    </clipPath>
    <linearGradient id="Gradient_bez_nazwy_14-5" data-name="Gradient bez nazwy 14" x1="-1195.57" y1="11632.78" x2="-1133.33" y2="11632.78" gradientTransform="translate(142980.49 1385526.27) scale(118.96 -118.96)" xlink:href="#Gradient_bez_nazwy_14"/>
    <clipPath id="clippath-7">
      <rect class="cls-26" x="754.99" width="7401.42" height="1913.21"/>
    </clipPath>
    <clipPath id="clippath-8">
      <path class="cls-26" d="m1906.42,1774.96c-14.81-6.85-28.01-16.93-38.59-29.5-10.77-13.01-18.92-28.01-23.9-44.13-11.08-35.17-11.08-72.77,0-107.87,4.98-16.18,13.13-31.12,23.9-44.19,10.58-12.51,23.78-22.6,38.59-29.5,33.24-14.5,70.96-14.5,104.14,0,14.94,6.91,28.07,16.93,38.59,29.5,10.83,12.88,19.05,27.82,24.15,43.82,11.02,35.11,11.02,72.77,0,107.81-5.04,16.18-13.13,31.19-23.9,44.26-10.52,12.51-23.78,22.6-38.65,29.5-16.31,7.47-34.17,11.27-52.16,10.89v.44h-2.05c-17.3,0-34.36-3.8-50.11-11.02m-51.6-370.43c-30.81,12.32-58.89,30.81-82.41,54.34-23.65,23.72-42.14,52.04-54.4,83.16-25.89,67.72-25.89,142.73,0,210.46,12.26,31.19,30.75,59.45,54.4,83.22,23.59,23.47,51.6,42.08,82.41,54.71,32.93,13.51,68.22,20.23,103.76,19.92v-.19c35.67.31,71.09-6.47,104.14-19.92,62.5-25.09,111.86-74.94,136.26-137.75,25.96-67.72,25.96-142.73,0-210.46-12.14-31.06-30.5-59.32-53.84-83.16-23.4-23.59-51.48-42.08-82.41-54.34-33.18-12.95-68.53-19.23-104.14-18.61-1.62,0-3.3-.06-4.98-.06-33.8,0-67.29,6.35-98.79,18.67"/>
    </clipPath>
    <linearGradient id="Gradient_bez_nazwy_14-6" data-name="Gradient bez nazwy 14" x1="-1195.57" y1="11632.78" x2="-1133.33" y2="11632.78" gradientTransform="translate(142980.49 1385526.27) scale(118.96 -118.96)" xlink:href="#Gradient_bez_nazwy_14"/>
    <clipPath id="clippath-9">
      <rect class="cls-26" x="754.99" width="7401.42" height="1913.21"/>
    </clipPath>
    <clipPath id="clippath-10">
      <path class="cls-26" d="m2662.1,1503.07h63.68c16.37-1.06,32.43,4.92,44.26,16.31,10.96,12.26,16.62,28.45,15.69,44.94.75,16.06-5.23,31.62-16.5,43.01-11.45,11.02-26.83,16.81-42.7,16.18h-64.43v-120.45Zm77.25-105.07h-206.78v499.47h129.91v-170h55.71l84.66,170h141.61l-107.13-191.72c23.84-14.32,43.63-34.24,57.76-58.08,15-26.08,22.47-55.71,21.72-85.78.5-24.34-3.92-48.49-12.82-71.09-7.91-19.67-20.23-37.16-35.98-51.23-16.25-14.19-35.17-24.84-55.71-31.19-22.6-6.91-46.06-10.46-69.65-10.46-1.12,0-2.18,0-3.3.06"/>
    </clipPath>
    <linearGradient id="Gradient_bez_nazwy_14-7" data-name="Gradient bez nazwy 14" x1="-1195.57" y1="11632.78" x2="-1133.33" y2="11632.78" gradientTransform="translate(142980.49 1385526.27) scale(118.96 -118.96)" xlink:href="#Gradient_bez_nazwy_14"/>
    <clipPath id="clippath-11">
      <polygon class="cls-26" points="3246.28 1398.18 3246.28 1897.9 3610.36 1897.9 3610.36 1781.12 3378.99 1781.12 3378.99 1398.18 3246.28 1398.18"/>
    </clipPath>
    <linearGradient id="Gradient_bez_nazwy_14-8" data-name="Gradient bez nazwy 14" x1="-1195.57" y1="11632.78" x2="-1133.33" y2="11632.78" gradientTransform="translate(142980.49 1385526.27) scale(118.96 -118.96)" xlink:href="#Gradient_bez_nazwy_14"/>
    <clipPath id="clippath-12">
      <rect class="cls-26" x="754.99" width="7401.42" height="1913.21"/>
    </clipPath>
    <clipPath id="clippath-13">
      <path class="cls-26" d="m4045.59,1514.33h54.03c20.67-.44,41.21,2.86,60.75,9.9,15.87,5.79,30.38,15.13,42.27,27.26,11.39,11.95,19.92,26.27,25.09,41.95,5.66,17.55,8.4,35.92,8.15,54.4.44,6.54.37,13.2-.25,19.73-6.22,68.91-67.1,119.7-136.01,113.54h-54.03v-266.79Zm60.13-115.97h-191.72l-.93,499.34h192.34c36.04.25,71.89-4.98,106.32-15.44,31.43-9.34,60.5-25.15,85.46-46.44,23.96-21.23,43.01-47.56,55.65-77,14.38-34.24,21.41-71.09,20.54-108.25.93-38.65-5.98-77.06-20.17-113.04-12.14-30.19-31.25-57.2-55.71-78.68-24.9-20.91-53.84-36.48-84.97-45.69-33.55-9.84-68.22-14.81-103.08-14.81h-3.73"/>
    </clipPath>
    <linearGradient id="Gradient_bez_nazwy_14-9" data-name="Gradient bez nazwy 14" x1="-1195.57" y1="11632.78" x2="-1133.33" y2="11632.78" gradientTransform="translate(142980.49 1385526.27) scale(118.96 -118.96)" xlink:href="#Gradient_bez_nazwy_14"/>
    <clipPath id="clippath-14">
      <rect class="cls-26" x="754.99" width="7401.42" height="1913.21"/>
    </clipPath>
    <clipPath id="clippath-15">
      <path class="cls-26" d="m5169.57,1385.36h-3.3c-35.04,0-69.78,6.72-102.27,19.86-31.06,12.64-59.13,31.62-82.48,55.71-23.22,24.09-41.33,52.6-53.28,83.91-12.64,33.61-18.92,69.28-18.55,105.2-.62,36.1,5.66,71.96,18.55,105.69,23.78,62.43,72.89,112.04,135.2,136.38,33.68,13.01,69.53,19.3,105.57,18.55,86.9,2.55,169.75-36.73,222.78-105.63l-89.32-82.91c-14.5,19.36-32.68,35.73-53.47,48.18-21.85,11.14-46.19,16.43-70.65,15.44-18.67.25-37.22-3.3-54.4-10.52-15.81-6.66-30-16.62-41.58-29.19-11.7-12.76-20.73-27.82-26.58-44.13-6.35-17.86-9.59-36.79-9.27-55.71-.19-18.55,2.86-36.91,8.9-54.4,5.66-16.18,14.38-31,25.83-43.82,11.52-12.64,25.71-22.6,41.58-29.13,17.62-7.22,36.54-10.77,55.65-10.58,23.4-.31,46.44,5.6,66.67,17.3,19.67,11.64,36.85,27.14,50.3,45.63l87.64-88.33c-22.78-33.92-55.15-60.25-92.81-75.75-37.53-14.38-77.37-21.72-117.52-21.72h-3.17"/>
    </clipPath>
    <linearGradient id="Gradient_bez_nazwy_14-10" data-name="Gradient bez nazwy 14" x1="-1195.57" y1="11632.77" x2="-1133.33" y2="11632.77" gradientTransform="translate(142980.49 1385526.27) scale(118.96 -118.96)" xlink:href="#Gradient_bez_nazwy_14"/>
    <clipPath id="clippath-16">
      <polygon class="cls-26" points="5683.04 1398.18 5683.04 1897.9 6047.25 1897.9 6047.25 1781.12 5815.75 1781.12 5815.75 1398.18 5683.04 1398.18"/>
    </clipPath>
    <linearGradient id="Gradient_bez_nazwy_14-11" data-name="Gradient bez nazwy 14" x1="-1195.57" y1="11632.78" x2="-1133.33" y2="11632.78" gradientTransform="translate(142980.49 1385526.27) scale(118.96 -118.96)" xlink:href="#Gradient_bez_nazwy_14"/>
    <clipPath id="clippath-17">
      <path class="cls-26" d="m6557.67,1514.21l55.71,183.57h-113.04l57.33-183.57Zm-70.9-116.03l-182.82,499.71h137.19l32.31-103.45h167.07l32.06,103.45h143.17l-176.9-499.71h-152.07Z"/>
    </clipPath>
    <linearGradient id="Gradient_bez_nazwy_14-12" data-name="Gradient bez nazwy 14" x1="-1195.57" y1="11632.78" x2="-1133.33" y2="11632.78" gradientTransform="translate(142980.49 1385526.27) scale(118.96 -118.96)" xlink:href="#Gradient_bez_nazwy_14"/>
    <clipPath id="clippath-18">
      <rect class="cls-26" x="754.99" width="7401.42" height="1913.21"/>
    </clipPath>
    <clipPath id="clippath-19">
      <path class="cls-26" d="m7200.18,1397.99c-22.28,7.22-42.83,18.99-60.38,34.48-15.87,14.38-28.63,31.93-37.04,51.6-8.65,20.23-13.01,42.02-12.89,64.05-.44,18.49,3.49,36.79,11.52,53.53,7.59,14.94,17.93,28.45,30.5,39.71,12.76,11.33,26.95,21.04,42.27,28.7,15.06,7.41,30.75,13.63,46.81,18.55l27.64,9.15c20.29,6.47,39.71,15.44,57.95,26.58,12.01,6.29,19.67,18.67,19.79,32.24.19,6.54-1.68,13.07-5.1,18.61-3.55,4.98-8.22,9.15-13.57,12.01-5.85,3.11-12.14,5.23-18.61,6.35-6.66,1.18-13.44,1.81-20.23,1.87-25.77.25-51.23-5.66-74.2-17.24-20.23-9.84-38.66-22.78-54.84-38.28l-79.43,96.67c24.84,23.34,53.97,41.46,85.78,53.53,40.21,14.25,82.79,21.04,125.49,19.79,26.77.19,53.47-3.73,79.05-11.7,23.22-6.91,45.07-18.05,64.43-32.68,17.8-13.45,32.62-30.56,43.45-50.05,10.71-19.48,16.31-41.46,16.18-63.68.62-23.09-3.98-46-13.57-67.04-8.34-17.37-20.04-32.87-34.36-45.63-14.01-12.26-30-22.1-47.18-29.13-17.43-6.85-34.61-13.01-51.6-18.61l-23.9-7.41-29.51-10.27c-8.28-2.68-16.12-6.29-23.59-10.71-6.1-3.61-11.39-8.47-15.44-14.32-3.8-5.79-5.73-12.51-5.54-19.48-.25-6.22,1.43-12.39,4.86-17.68,3.3-4.79,7.66-8.78,12.76-11.64,5.54-3.11,11.45-5.35,17.62-6.72,6.1-1.37,12.32-2.12,18.61-2.18,20.11.06,40.09,4.23,58.45,12.45,19.42,8.53,37.78,19.23,54.78,31.93l67.41-85.46c-7.34-7.47-15.37-14.19-23.97-20.23-12.01-8.28-24.77-15.31-38.22-20.91-16.93-7.1-34.48-12.64-52.41-16.56-21.91-4.61-44.26-6.85-66.6-6.66-1.37-.06-2.8-.06-4.17-.06-26.83,0-53.47,4.23-78.99,12.51"/>
    </clipPath>
    <linearGradient id="Gradient_bez_nazwy_14-13" data-name="Gradient bez nazwy 14" x1="-1195.57" y1="11632.78" x2="-1133.33" y2="11632.78" gradientTransform="translate(142980.49 1385526.27) scale(118.96 -118.96)" xlink:href="#Gradient_bez_nazwy_14"/>
    <clipPath id="clippath-20">
      <rect class="cls-26" x="754.99" width="7401.42" height="1913.21"/>
    </clipPath>
    <clipPath id="clippath-21">
      <path class="cls-26" d="m7881.03,1399.05c-22.28,7.28-42.76,18.99-60.32,34.61-16,14.25-28.63,31.93-37.16,51.54-8.53,20.23-12.95,42.02-12.76,64.05-.44,18.49,3.49,36.79,11.45,53.47,7.66,15,17.99,28.51,30.5,39.71,12.76,11.39,27.01,21.1,42.33,28.76,15.06,7.41,30.75,13.63,46.75,18.55l27.7,9.15c20.29,6.16,39.78,14.69,58.08,25.46,12.08,6.29,19.67,18.67,19.86,32.24.12,6.54-1.62,13.07-5.17,18.61-3.55,5.04-8.22,9.15-13.57,12.01-5.85,3.11-12.08,5.23-18.55,6.35-6.72,1.18-13.51,1.81-20.29,1.87-25.77.25-51.23-5.66-74.2-17.24-20.17-9.84-38.59-22.78-54.78-38.28l-79.49,97.66c24.84,23.22,53.97,41.39,85.78,53.41,40.27,14.38,82.85,21.04,125.49,19.92,26.77.12,53.47-3.86,79.12-11.7,23.22-6.97,45-17.99,64.36-32.49,17.8-13.51,32.62-30.63,43.51-50.11,10.71-19.48,16.25-41.46,16.12-63.68.68-23.09-3.98-46-13.57-67.04-8.28-17.37-19.98-32.87-34.36-45.63-14-12.2-29.94-22.1-47.18-29.19-17.49-6.78-34.73-12.95-51.73-18.55l-23.9-7.41-29.57-10.27c-8.22-2.74-16.12-6.29-23.59-10.71-6.1-3.61-11.33-8.47-15.37-14.32-3.8-5.79-5.79-12.57-5.6-19.48-.25-6.22,1.43-12.39,4.86-17.68,3.3-4.79,7.72-8.78,12.76-11.64,5.6-3.11,11.52-5.35,17.68-6.72,6.1-1.37,12.33-2.12,18.55-2.18,20.17,0,40.02,4.23,58.45,12.45,19.48,8.53,37.85,19.23,54.84,31.87l67.29-85.4c-7.28-7.47-15.25-14.25-23.9-20.17-12.01-8.34-24.84-15.37-38.28-20.98-16.81-7.16-34.36-12.7-52.29-16.56-21.91-4.61-44.26-6.91-66.67-6.66-1.37-.06-2.74-.06-4.17-.06-26.83,0-53.41,4.23-78.99,12.45"/>
    </clipPath>
    <linearGradient id="Gradient_bez_nazwy_14-14" data-name="Gradient bez nazwy 14" x1="-1195.57" y1="11632.77" x2="-1133.33" y2="11632.77" gradientTransform="translate(142980.49 1385526.28) scale(118.96 -118.96)" xlink:href="#Gradient_bez_nazwy_14"/>
    <clipPath id="clippath-22">
      <rect class="cls-26" width="8911.46" height="3078.71"/>
    </clipPath>
    <linearGradient id="Gradient_bez_nazwy_15" data-name="Gradient bez nazwy 15" x1="-1197.88" y1="11620.41" x2="-1135.64" y2="11620.41" gradientTransform="translate(150492.02 1457160.15) scale(125.16 -125.16)" gradientUnits="userSpaceOnUse">
      <stop offset="0" stop-color="#b39122"/>
      <stop offset=".5" stop-color="#d7ac29"/>
      <stop offset="1" stop-color="#b39122"/>
    </linearGradient>
  </defs>
  <g id="Warstwa_1-2" data-name="Warstwa 1">
    <g>
      <polygon class="cls-6" points="3740.8 .03 3740.8 807.12 4173.67 441.98 4367.69 441.98 4406.09 612.79 4444.56 612.79 4444.56 194.18 4406.09 194.18 4367.69 364.98 4173.67 364.98 3740.8 .03"/>
      <g class="cls-24">
        <rect class="cls-13" x="3740.83" width="703.7" height="807.15"/>
      </g>
      <polygon class="cls-6" points="5222.13 .03 4789.27 364.98 4595.44 364.98 4557.03 194.18 4518.37 194.18 4518.37 612.79 4557.03 612.79 4595.44 441.98 4789.27 441.98 5222.13 807.12 5222.13 .03"/>
      <g class="cls-17">
        <rect class="cls-37" x="4518.41" width="703.7" height="807.15"/>
      </g>
      <g class="cls-9">
        <path class="cls-6" d="m5384.29,408.52c-1.12,12.08,7.78,22.72,19.79,23.84,1.37.12,2.68.12,4.05,0l862.24-21.72-862.24-21.91c-12.08-1.12-22.72,7.72-23.84,19.79"/>
      </g>
      <g class="cls-28">
        <rect class="cls-8" x="5383.2" y="388.67" width="887.14" height="43.82"/>
      </g>
      <g class="cls-18">
        <path class="cls-6" d="m3558.84,432.35c12.08-1.12,20.91-11.76,19.79-23.84-1.12-12.01-11.76-20.91-23.84-19.79l-862.24,21.91,862.24,21.72c1.37.12,2.68.12,4.05,0"/>
      </g>
      <g class="cls-35">
        <rect class="cls-16" x="2692.6" y="388.67" width="887.14" height="43.82"/>
      </g>
      <polygon class="cls-6" points="1301.67 1398.17 1238.18 1732.99 1158.75 1410.18 1038.12 1410.18 959.37 1732.99 894.95 1398.17 755.02 1398.17 876.21 1897.88 1017.08 1897.88 1095.82 1581.73 1174.5 1897.88 1313 1897.88 1437.36 1398.17 1301.67 1398.17"/>
      <g class="cls-12">
        <rect class="cls-20" x="754.99" y="1398.18" width="682.35" height="499.71"/>
      </g>
      <g class="cls-14">
        <path class="cls-6" d="m2145.15,1458.85c-23.47-23.53-51.48-42.08-82.41-54.34-33.18-12.95-68.53-19.23-104.14-18.61-35.48-.62-70.71,5.66-103.76,18.61-30.81,12.39-58.89,30.87-82.41,54.34-23.59,23.72-42.14,52.04-54.4,83.16-25.96,67.79-25.96,142.73,0,210.52,12.26,31.12,30.81,59.45,54.4,83.16,23.59,23.53,51.6,42.14,82.41,54.78,32.93,13.45,68.22,20.23,103.76,19.86v-.19c35.67.31,71.09-6.41,104.14-19.86,62.5-25.09,111.86-74.94,136.26-137.75,25.96-67.79,25.96-142.73,0-210.52-12.2-31.06-30.5-59.32-53.84-83.16m-71.83,242.08c-5.04,16.12-13.2,31.12-23.97,44.2-10.52,12.57-23.72,22.6-38.59,29.5-16.37,7.53-34.17,11.27-52.16,10.96v.37c-17.99.31-35.79-3.42-52.16-10.96-14.88-6.91-28.01-16.99-38.59-29.5-10.77-13.07-18.92-28.07-23.96-44.2-11.02-35.11-11.02-72.77,0-107.87,5.04-16.12,13.2-31.12,23.96-44.13,10.58-12.57,23.72-22.6,38.59-29.57,33.18-14.5,70.96-14.5,104.14,0,14.88,6.91,28.07,16.99,38.59,29.57,10.83,12.88,19.05,27.76,24.15,43.76,11.02,35.11,11.02,72.77,0,107.87"/>
      </g>
      <g class="cls-30">
        <rect class="cls-38" x="1692.11" y="1385.3" width="532.83" height="525.36"/>
      </g>
      <g class="cls-22">
        <path class="cls-6" d="m2895.06,1647.65c15-26.08,22.53-55.71,21.72-85.78.5-24.28-3.86-48.43-12.76-71.09-7.97-19.61-20.29-37.16-36.04-51.23-16.18-14.13-35.17-24.77-55.71-31.19-23.59-7.22-48.24-10.71-72.95-10.4h-206.78v499.53h129.97v-170.06h55.71l84.59,170.06h141.67l-107.13-191.78c23.78-14.25,43.63-34.24,57.7-58.08m-109.3-83.35c.68,16.06-5.29,31.62-16.5,43.07-11.45,10.96-26.89,16.74-42.7,16.12h-64.43v-120.45h63.68c16.37-1,32.37,4.92,44.19,16.31,10.96,12.32,16.62,28.45,15.75,44.94"/>
      </g>
      <g class="cls-39">
        <rect class="cls-40" x="2532.56" y="1397.93" width="411.88" height="499.53"/>
      </g>
      <polygon class="cls-6" points="3246.3 1398.17 3246.3 1897.88 3610.32 1897.88 3610.32 1781.11 3379.01 1781.11 3379.01 1398.17 3246.3 1398.17"/>
      <g class="cls-4">
        <rect class="cls-29" x="3246.28" y="1398.18" width="364.08" height="499.71"/>
      </g>
      <g class="cls-19">
        <path class="cls-6" d="m4297.54,1458.85c-24.9-20.91-53.84-36.48-85.03-45.63-34.67-10.21-70.65-15.25-106.75-14.88h-191.78l-.87,499.34h192.28c36.04.25,71.89-4.92,106.38-15.37,31.37-9.4,60.44-25.21,85.4-46.44,23.96-21.29,43.01-47.56,55.65-77.06,14.44-34.17,21.48-71.09,20.6-108.18.87-38.66-5.98-77.12-20.23-113.04-12.14-30.25-31.19-57.2-55.65-78.74m-61.87,208.71c-6.23,68.91-67.1,119.76-136.01,113.54h-54.03v-266.73h54.03c20.67-.5,41.21,2.86,60.69,9.83,15.94,5.85,30.38,15.19,42.33,27.26,11.33,11.95,19.92,26.33,25.02,41.95,5.66,17.55,8.47,35.98,8.15,54.4.5,6.6.37,13.2-.19,19.73"/>
      </g>
      <g class="cls-10">
        <rect class="cls-23" x="3913.06" y="1398.37" width="461.25" height="499.59"/>
      </g>
      <g class="cls-32">
        <path class="cls-6" d="m5249.04,1770.35c-21.91,11.08-46.25,16.37-70.71,15.37-18.67.31-37.16-3.3-54.4-10.52-15.75-6.66-29.94-16.62-41.58-29.19-11.7-12.76-20.73-27.82-26.52-44.13-6.41-17.86-9.59-36.73-9.34-55.71-.19-18.49,2.86-36.91,8.96-54.4,5.6-16.12,14.38-31.06,25.77-43.82,11.58-12.64,25.77-22.6,41.58-29.13,17.68-7.22,36.6-10.83,55.71-10.58,23.34-.31,46.37,5.66,66.6,17.3,19.73,11.64,36.85,27.14,50.3,45.63l87.64-88.33c-22.78-33.86-55.09-60.25-92.81-75.75-38.47-14.75-79.43-22.16-120.63-21.72-36.23-.44-72.08,6.35-105.63,19.86-31.06,12.64-59.13,31.62-82.41,55.71-23.28,24.09-41.39,52.6-53.28,83.91-12.7,33.61-18.99,69.28-18.55,105.26-.62,36.04,5.66,71.89,18.55,105.57,23.78,62.5,72.89,112.04,135.14,136.44,33.68,13.01,69.53,19.3,105.63,18.55,86.9,2.55,169.68-36.73,222.72-105.57l-89.26-82.97c-14.57,19.36-32.74,35.73-53.47,48.24"/>
      </g>
      <g class="cls-11">
        <rect class="cls-1" x="4909.07" y="1385.36" width="482.72" height="527.85"/>
      </g>
      <polygon class="cls-6" points="5683.02 1398.17 5683.02 1897.88 6047.23 1897.88 6047.23 1781.11 5815.73 1781.11 5815.73 1398.17 5683.02 1398.17"/>
      <g class="cls-5">
        <rect class="cls-34" x="5683.04" y="1398.18" width="364.2" height="499.71"/>
      </g>
      <path class="cls-6" d="m6557.67,1514.2l55.71,183.57h-113.04l57.33-183.57Zm-70.9-116.03l-182.82,499.71h137.19l32.31-103.39h167.07l32.06,103.39h143.17l-176.9-499.71h-152.07Z"/>
      <g class="cls-33">
        <rect class="cls-7" x="6303.95" y="1398.18" width="511.79" height="499.71"/>
      </g>
      <g class="cls-31">
        <path class="cls-6" d="m7426.81,1639.11c-14.01-12.2-29.94-22.04-47.12-29.13-17.49-6.85-34.67-13.01-51.66-18.55l-23.9-7.47-29.51-10.21c-8.22-2.74-16.12-6.35-23.59-10.77-6.1-3.61-11.33-8.47-15.44-14.25-3.8-5.79-5.73-12.57-5.54-19.48-.25-6.29,1.43-12.45,4.79-17.68,3.36-4.79,7.72-8.84,12.82-11.7,5.54-3.11,11.45-5.35,17.68-6.66,6.04-1.43,12.26-2.18,18.55-2.24,20.11.06,40.02,4.3,58.45,12.45,19.42,8.53,37.78,19.23,54.78,31.93l67.35-85.4c-7.28-7.47-15.31-14.25-23.9-20.23-12.01-8.28-24.84-15.31-38.28-20.98-16.87-7.1-34.42-12.64-52.35-16.5-21.85-4.67-44.2-6.91-66.6-6.72-28.2-.44-56.33,3.8-83.16,12.45-22.28,7.22-42.83,18.99-60.32,34.55-16,14.32-28.63,31.93-37.16,51.6-8.59,20.23-12.95,42.02-12.82,64.05-.44,18.49,3.49,36.79,11.52,53.47,7.59,15,17.93,28.45,30.44,39.71,12.82,11.39,27.02,21.04,42.33,28.76,15.13,7.41,30.75,13.63,46.81,18.55l27.64,9.09c20.29,6.54,39.71,15.44,57.95,26.58,12.01,6.29,19.61,18.67,19.86,32.31.12,6.54-1.68,13.01-5.23,18.55-3.49,5.04-8.15,9.15-13.57,12.08-5.79,3.05-12.01,5.23-18.55,6.29-6.66,1.24-13.44,1.87-20.23,1.87-25.77.31-51.23-5.6-74.26-17.24-20.11-9.84-38.59-22.72-54.71-38.28l-79.49,96.73c24.84,23.28,53.97,41.39,85.78,53.47,40.21,14.32,82.79,21.04,125.49,19.86,26.83.19,53.47-3.8,79.05-11.7,23.28-6.97,45.07-18.05,64.43-32.68,17.8-13.51,32.62-30.56,43.45-50.11,10.77-19.48,16.31-41.39,16.12-63.68.68-23.09-3.92-46-13.51-66.98-8.34-17.37-20.04-32.87-34.36-45.69"/>
      </g>
      <g class="cls-27">
        <rect class="cls-3" x="7060.37" y="1385.36" width="415" height="525.8"/>
      </g>
      <g class="cls-2">
        <path class="cls-6" d="m8107.88,1640.22c-14.01-12.2-29.94-22.04-47.12-29.13-17.62-6.85-34.86-13.01-51.79-18.55l-23.97-7.47-29.5-10.21c-8.22-2.74-16.12-6.35-23.59-10.77-6.1-3.61-11.33-8.47-15.44-14.25-3.8-5.79-5.73-12.57-5.54-19.48-.25-6.29,1.43-12.39,4.79-17.68,3.36-4.79,7.72-8.84,12.82-11.7,5.54-3.11,11.45-5.35,17.68-6.66,6.04-1.43,12.26-2.18,18.55-2.24,20.11.06,40.02,4.3,58.45,12.45,19.42,8.53,37.78,19.23,54.78,31.93l67.35-85.4c-7.28-7.53-15.31-14.25-23.9-20.23-12.01-8.28-24.84-15.31-38.28-20.98-16.87-7.1-34.42-12.64-52.35-16.5-21.85-4.67-44.2-6.91-66.6-6.72-28.2-.44-56.33,3.8-83.16,12.45-22.28,7.22-42.83,18.99-60.32,34.55-16,14.32-28.63,31.93-37.16,51.6-8.59,20.23-12.95,42.02-12.82,64.05-.44,18.49,3.49,36.79,11.52,53.47,7.66,15,17.93,28.45,30.44,39.71,12.82,11.39,27.08,21.04,42.33,28.76,15.13,7.41,30.75,13.63,46.81,18.55l27.64,9.09c20.29,6.16,39.84,14.69,58.14,25.46,12.01,6.29,19.61,18.67,19.86,32.31.12,6.54-1.68,13.01-5.23,18.55-3.49,5.04-8.15,9.15-13.57,12.08-5.79,3.11-12.01,5.23-18.55,6.29-6.66,1.24-13.44,1.87-20.23,1.87-25.77.31-51.23-5.6-74.26-17.24-20.11-9.84-38.59-22.72-54.71-38.28l-79.49,97.66c24.84,23.28,53.97,41.39,85.78,53.47,40.21,14.32,82.79,21.04,125.49,19.86,26.83.19,53.47-3.8,79.05-11.7,23.22-6.91,45.07-17.93,64.43-32.49,17.8-13.51,32.62-30.56,43.45-50.11,10.77-19.48,16.31-41.39,16.12-63.68.68-23.09-3.92-46-13.51-66.98-8.34-17.37-19.98-32.87-34.36-45.69"/>
      </g>
      <g class="cls-15">
        <rect class="cls-25" x="7741.41" y="1386.42" width="415.06" height="525.61"/>
      </g>
      <g class="cls-21">
        <path class="cls-36" d="m2125.47,2905.24v-403.04h138.65c104.41,0,155.49,40.42,155.49,123.49s-57.26,125.74-156.61,125.74h-60.06v153.81h-77.46Zm140.9-217.24c35.93,0,75.78-9.54,75.78-62.31,0-39.29-26.38-58.38-72.97-58.38h-66.24v120.69h63.43Zm306.29,15.72c0-107.22,49.4-208.26,171.77-208.26s171.77,101.04,171.77,208.26c0,125.74-60.62,208.26-171.77,208.26s-171.77-82.52-171.77-208.26Zm266.63,0c0-92.06-33.68-146.51-94.87-146.51s-94.3,54.45-94.3,146.51,32.56,145.39,94.3,145.39,94.87-53.89,94.87-145.39Zm256.36,201.52v-403.04h77.46v337.92h170.08v65.11h-247.55Zm642.49,0l-29.19-106.09h-130.23l-29.19,106.09h-78.03l121.25-403.04h104.97l121.81,403.04h-81.39Zm-141.46-170.65h94.3l-46.59-168.4h-1.12l-46.59,168.4Zm632.43,170.65l-170.65-294.7h-1.12v294.7h-72.97v-403.04h95.99l151.56,269.44h1.12v-269.44h72.41v403.04h-76.34Zm277.71,0v-403.04h123.49c131.91,0,196.47,66.24,196.47,195.91s-71.85,207.13-204.33,207.13h-115.64Zm120.69-67.36c84.2,0,121.81-47.71,121.81-138.09s-36.49-130.23-113.95-130.23h-51.08v268.32h43.22Zm596.15,67.36v-37.05c0-46.03,32-81.39,69.04-111.14,58.38-47.71,130.23-77.46,130.23-140.33,0-39.85-23.01-61.19-60.62-61.19s-61.19,20.21-71.29,69.04l-62.87-13.47c11.23-74.1,62.31-115.64,139.77-115.64,82.52,0,126.86,44.91,126.86,116.76,0,94.87-102.72,139.77-153.81,183-19.65,16.28-33.12,33.68-33.68,49.4h189.17v60.62h-272.81Zm433.69-199.27c0-132.48,48.27-210.5,142.02-210.5s142.02,78.03,142.02,210.5-51.64,206.01-142.02,206.01-142.02-71.85-142.02-206.01Zm210.5,0c0-102.72-22.45-152.68-68.48-152.68s-68.48,49.96-68.48,152.68,22.45,147.63,68.48,147.63,68.48-48.84,68.48-147.63Zm225.44,199.27v-37.05c0-46.03,32-81.39,69.04-111.14,58.38-47.71,130.23-77.46,130.23-140.33,0-39.85-23.01-61.19-60.62-61.19s-61.19,20.21-71.29,69.04l-62.87-13.47c11.23-74.1,62.31-115.64,139.77-115.64,82.52,0,126.86,44.91,126.86,116.76,0,94.87-102.72,139.77-153.81,183-19.65,16.28-33.12,33.68-33.68,49.4h189.17v60.62h-272.81Zm565.61,6.74c-66.8,0-116.2-17.4-148.75-80.27l58.38-33.12c22.45,40.98,47.15,52.77,86.45,52.77,46.03,0,79.15-23.01,79.15-66.24,0-46.59-40.42-65.68-106.09-65.68h-23.58v-56.69h21.33c64.55,0,96.55-19.65,96.55-56.13,0-30.31-22.45-51.08-65.11-51.08-31.43,0-57.82,9.54-80.27,41.54l-49.4-38.17c34.24-44.91,79.71-63.43,137.53-63.43,79.71,0,130.23,39.29,130.23,104.41,0,39.85-24.14,73.53-72.97,89.25v1.12c55.01,15.16,83.64,49.96,83.64,101.04,0,77.46-62.31,120.69-147.07,120.69Z"/>
      </g>
    </g>
  </g>
</svg>